<?xml version="1.0" standalone="no"?>
<!DOCTYPE svg PUBLIC "-//W3C//DTD SVG 20010904//EN"
 "http://www.w3.org/TR/2001/REC-SVG-20010904/DTD/svg10.dtd">
<svg version="1.0" xmlns="http://www.w3.org/2000/svg"
 width="2048.000000pt" height="2048.000000pt" viewBox="0 0 2048.000000 2048.000000"
 preserveAspectRatio="xMidYMid meet">
<metadata>
Created by potrace 1.11, written by Peter Selinger 2001-2013
</metadata>
<g transform="translate(0.000000,2048.000000) scale(0.100000,-0.100000)"
fill="#000000" stroke="none">
<path d="M7598 16913 c6 -2 12 -12 12 -20 0 -9 2 -14 6 -11 3 3 68 -56 144
-132 77 -76 142 -135 145 -132 3 3 5 -2 5 -11 0 -9 6 -17 14 -17 8 0 18 -9 21
-20 3 -11 10 -20 14 -20 5 0 70 -60 145 -134 75 -74 136 -131 136 -128 0 4 9
-6 20 -23 11 -16 20 -26 20 -22 0 4 6 2 14 -5 8 -7 12 -16 9 -20 -2 -5 0 -8 4
-8 5 0 76 -66 158 -146 83 -80 159 -154 170 -163 11 -9 30 -29 43 -45 12 -16
22 -26 22 -23 0 3 45 -39 100 -93 55 -55 100 -97 100 -94 0 4 10 -6 22 -21 22
-28 67 -75 72 -75 11 0 120 -117 109 -118 -7 -1 -20 -3 -28 -4 -8 -1 -15 -6
-15 -11 0 -6 -3 -8 -6 -4 -6 6 -65 -12 -74 -22 -5 -6 -95 -40 -115 -44 -5 -1
-13 -6 -16 -10 -3 -4 -16 -9 -27 -10 -12 -1 -22 -5 -22 -9 0 -4 -5 -8 -12 -8
-10 0 -62 -19 -153 -55 -11 -5 -22 -9 -25 -10 -3 -1 -18 -8 -35 -15 -16 -7
-39 -15 -50 -17 -10 -2 -22 -8 -26 -14 -3 -6 -8 -9 -10 -8 -6 5 -131 -43 -157
-59 -12 -8 -25 -12 -28 -9 -3 3 -17 -1 -31 -8 -15 -8 -31 -11 -36 -8 -6 3 -7
1 -3 -5 4 -7 -7 -13 -29 -18 -19 -3 -38 -10 -41 -15 -3 -5 -10 -7 -15 -4 -5 4
-9 1 -9 -6 0 -7 -3 -10 -6 -7 -3 4 -29 -4 -59 -17 -29 -13 -56 -21 -59 -18 -3
4 -6 1 -6 -5 0 -7 -3 -11 -7 -10 -5 0 -15 -1 -23 -4 -8 -4 -24 -9 -35 -14 -11
-4 -23 -6 -27 -6 -5 1 -8 -3 -8 -9 0 -5 -4 -7 -10 -4 -5 3 -10 1 -10 -5 0 -6
-4 -9 -8 -6 -5 3 -21 -2 -36 -9 -16 -8 -32 -12 -37 -9 -5 3 -9 0 -9 -5 0 -6
-9 -11 -20 -11 -11 0 -20 -5 -20 -10 0 -6 -6 -10 -12 -9 -7 1 -24 -3 -38 -9
-84 -37 -123 -51 -131 -46 -5 3 -9 0 -9 -6 0 -6 -4 -8 -10 -5 -5 3 -10 2 -10
-2 0 -5 -26 -18 -57 -28 -32 -11 -69 -25 -82 -32 -14 -6 -28 -10 -33 -7 -4 3
-8 1 -8 -4 0 -8 -32 -21 -57 -23 -5 0 -16 -8 -25 -16 -10 -9 -18 -13 -18 -10
0 6 -48 -11 -130 -46 -14 -5 -29 -11 -35 -13 -5 -1 -28 -10 -50 -20 -22 -10
-44 -19 -50 -20 -5 -1 -23 -8 -40 -15 -16 -7 -33 -13 -37 -14 -5 -2 -11 -4
-15 -5 -5 -1 -11 -2 -15 -1 -5 0 -8 -3 -8 -9 0 -6 -3 -9 -7 -8 -13 4 -133 -46
-133 -55 0 -5 -4 -5 -10 -2 -5 3 -22 -1 -38 -9 -16 -8 -32 -12 -36 -9 -3 4 -6
0 -6 -7 0 -7 -3 -10 -7 -7 -3 4 -11 3 -17 -1 -6 -5 -40 -19 -76 -32 -36 -13
-74 -30 -84 -39 -11 -9 -16 -10 -12 -4 5 9 2 11 -8 7 -9 -3 -16 -10 -16 -14 0
-5 -9 -7 -20 -5 -11 2 -20 -1 -20 -6 0 -6 -4 -8 -9 -5 -5 4 -11 2 -13 -3 -1
-5 -12 -11 -23 -13 -11 -1 -26 -8 -33 -15 -7 -7 -19 -10 -27 -7 -8 4 -15 1
-15 -5 0 -6 -3 -10 -7 -9 -13 4 -137 -45 -145 -56 -4 -6 -8 -8 -8 -3 0 4 -13
1 -30 -8 -16 -9 -30 -13 -30 -9 0 4 -6 1 -14 -5 -8 -7 -24 -14 -36 -16 -12 -2
-33 -11 -47 -20 -13 -9 -28 -13 -33 -10 -6 3 -10 1 -10 -4 0 -6 -6 -11 -13
-11 -12 0 -59 -18 -167 -63 -14 -5 -29 -11 -35 -13 -5 -1 -23 -8 -40 -15 -16
-7 -32 -13 -35 -14 -24 -8 -81 -31 -115 -46 -16 -7 -33 -13 -37 -15 -5 -1 -10
-3 -13 -4 -3 -1 -8 -3 -12 -5 -12 -3 -45 -16 -68 -25 -63 -28 -150 -60 -162
-60 -7 0 -13 -5 -13 -11 0 -6 -7 -9 -15 -5 -8 3 -15 1 -15 -5 0 -6 -7 -9 -15
-5 -8 3 -15 2 -15 -3 0 -5 -10 -11 -23 -15 -13 -3 -41 -13 -63 -23 -21 -9 -41
-17 -44 -18 -5 0 -147 -55 -200 -77 -14 -6 -33 -14 -42 -19 -10 -5 -25 -9 -33
-9 -8 0 -15 -4 -15 -10 0 -5 -3 -9 -7 -8 -11 3 -86 -23 -100 -34 -7 -5 -16 -7
-22 -4 -5 3 -11 3 -13 -2 -1 -4 -37 -20 -78 -36 -41 -15 -94 -37 -117 -47 -24
-10 -49 -19 -56 -19 -7 0 -18 -5 -25 -12 -7 -7 -12 -8 -12 -2 0 5 -4 3 -8 -3
-4 -7 -17 -14 -27 -16 -11 -2 -37 -11 -59 -20 -21 -9 -45 -17 -52 -17 -8 0
-14 -5 -14 -12 0 -6 -3 -9 -6 -5 -4 3 -19 0 -34 -8 -15 -8 -30 -11 -34 -8 -3
4 -6 2 -6 -4 0 -6 -16 -14 -35 -17 -19 -4 -35 -12 -35 -18 0 -6 -3 -9 -6 -5
-3 3 -25 -3 -49 -13 -24 -10 -46 -16 -49 -13 -3 4 -6 1 -6 -5 0 -7 -9 -12 -20
-12 -11 0 -20 -4 -20 -10 0 -5 -3 -9 -7 -8 -10 4 -126 -35 -133 -43 -7 -8 -83
-34 -92 -31 -5 1 -8 -3 -8 -8 0 -5 -3 -9 -7 -8 -5 1 -26 -6 -48 -16 -22 -10
-47 -19 -55 -21 -8 -2 -16 -4 -17 -5 -2 -2 -6 -3 -10 -5 -11 -3 -42 -15 -90
-36 -23 -11 -48 -19 -55 -19 -8 0 -18 -4 -24 -8 -5 -5 -43 -21 -84 -36 -41
-16 -87 -34 -102 -42 -14 -8 -36 -14 -47 -14 -12 0 -21 -5 -21 -11 0 -6 -7 -9
-15 -5 -8 3 -15 2 -15 -2 0 -4 -26 -17 -57 -27 -32 -11 -75 -28 -95 -37 -20
-10 -43 -18 -51 -18 -7 0 -17 -3 -21 -7 -12 -13 -99 -42 -108 -37 -4 3 -8 1
-8 -5 0 -9 -65 -37 -100 -43 -8 -2 -21 -9 -28 -15 -7 -7 -21 -13 -31 -13 -10
0 -21 -3 -25 -7 -4 -5 -12 -9 -17 -9 -5 -1 -11 -3 -14 -4 -3 -1 -8 -4 -12 -5
-5 -1 -24 -8 -43 -16 -19 -7 -38 -12 -43 -11 -4 1 -7 -2 -7 -8 0 -5 -7 -10
-15 -10 -8 0 -34 -9 -58 -19 -45 -20 -76 -32 -92 -37 -5 -1 -42 -16 -82 -32
-39 -17 -74 -28 -77 -24 -3 3 -6 -1 -6 -8 0 -7 -3 -10 -6 -7 -4 4 -19 0 -33
-7 -37 -20 -213 -89 -228 -89 -7 0 -13 -5 -13 -10 0 -5 -6 -7 -13 -4 -7 3 -24
-3 -37 -13 -13 -10 -30 -16 -37 -13 -7 3 -13 0 -13 -6 0 -6 -11 -11 -25 -11
-14 0 -25 -5 -25 -10 0 -6 -3 -9 -7 -9 -5 1 -11 0 -15 -1 -5 -1 -11 -3 -15 -5
-8 -2 -53 -19 -83 -32 -8 -3 -18 -5 -22 -5 -5 1 -8 -3 -8 -9 0 -5 -4 -8 -9 -5
-4 3 -27 -3 -49 -14 -23 -11 -48 -20 -56 -20 -8 0 -17 -4 -21 -9 -3 -5 -19
-12 -35 -16 -17 -4 -30 -10 -30 -14 0 -4 -7 -8 -15 -9 -8 -1 -22 -3 -30 -4 -8
-1 -15 -6 -15 -11 0 -6 -3 -8 -6 -4 -4 3 -24 -3 -45 -14 -22 -11 -39 -17 -39
-13 0 4 -6 1 -13 -5 -8 -6 -17 -8 -20 -4 -4 3 -7 1 -7 -5 0 -6 -15 -14 -32
-17 -18 -4 -37 -11 -43 -15 -5 -5 -34 -16 -62 -25 -29 -10 -53 -21 -53 -26 0
-4 -9 -6 -20 -4 -11 2 -20 0 -20 -6 0 -5 -9 -9 -20 -9 -11 0 -20 -4 -20 -8 0
-5 -7 -9 -15 -10 -8 -1 -22 -3 -30 -4 -8 -1 -15 -5 -15 -10 0 -5 -4 -7 -9 -3
-5 3 -13 0 -16 -6 -4 -5 -13 -8 -20 -5 -8 3 -15 0 -17 -5 -2 -6 -10 -11 -18
-13 -8 -1 -33 -10 -55 -20 -22 -10 -45 -19 -51 -20 -7 -1 -20 -8 -30 -16 -11
-10 -15 -10 -10 -2 4 7 -9 3 -28 -8 -20 -11 -37 -20 -39 -19 -3 0 -16 -4 -92
-33 -33 -12 -62 -23 -65 -23 -16 -4 -67 -32 -80 -44 -13 -13 -13 -14 2 -8 10
3 18 2 18 -3 0 -6 8 -10 19 -10 10 0 30 -9 44 -20 14 -11 30 -20 37 -20 16 0
74 -31 82 -44 4 -6 8 -8 8 -3 0 8 62 -21 70 -34 3 -4 19 -10 35 -13 16 -3 31
-10 33 -16 2 -5 11 -10 20 -10 10 0 28 -9 42 -20 14 -11 30 -20 36 -20 16 0
64 -24 64 -32 0 -5 6 -8 14 -8 8 0 39 -13 69 -30 30 -16 56 -27 59 -25 3 3 11
-1 18 -10 7 -8 19 -15 26 -15 8 0 14 -5 14 -11 0 -5 4 -8 9 -5 10 7 61 -16 61
-27 0 -5 5 -5 10 -2 6 3 10 1 10 -4 0 -6 3 -10 8 -9 11 2 62 -24 62 -33 0 -5
7 -6 15 -3 8 4 15 1 15 -6 0 -6 5 -8 12 -4 6 4 17 -1 24 -11 8 -10 17 -16 20
-12 4 3 18 -3 32 -13 13 -11 31 -20 38 -20 8 0 14 -6 14 -12 0 -9 4 -8 10 2 6
9 10 10 10 3 0 -7 21 -21 47 -33 26 -11 50 -24 53 -28 7 -9 71 -34 92 -35 9
-1 15 -5 12 -8 -2 -4 12 -13 31 -20 19 -7 35 -17 35 -21 0 -4 9 -8 20 -8 11 0
20 -5 20 -10 0 -6 3 -9 8 -8 4 1 26 -8 49 -20 24 -12 43 -19 43 -16 0 4 8 1
18 -8 16 -13 74 -41 80 -39 1 1 10 -5 19 -14 8 -9 21 -14 28 -11 8 3 16 -2 19
-10 3 -9 10 -12 16 -9 5 3 10 2 10 -3 0 -9 34 -23 44 -19 2 1 14 -7 27 -18 14
-13 20 -14 15 -5 -5 9 -2 8 7 -2 8 -10 17 -15 20 -11 4 3 7 1 7 -6 0 -8 7 -11
15 -7 8 3 15 1 15 -5 0 -6 5 -7 10 -4 6 3 10 2 10 -2 0 -10 115 -66 136 -66 8
0 12 -3 9 -6 -7 -6 63 -41 82 -41 7 0 13 -4 13 -9 0 -8 37 -24 53 -22 4 1 7
-4 7 -10 0 -5 5 -7 10 -4 6 3 10 1 10 -5 0 -6 4 -9 8 -6 5 3 19 -4 30 -15 12
-11 22 -16 22 -12 0 4 5 1 10 -7 7 -11 10 -11 10 -2 0 7 5 10 10 7 6 -4 7 -11
4 -17 -4 -6 -2 -8 3 -5 6 4 32 -5 58 -18 25 -14 51 -22 57 -19 6 4 8 3 5 -3
-3 -5 9 -16 28 -23 19 -8 35 -17 35 -22 0 -4 3 -7 8 -6 11 4 72 -26 72 -35 0
-5 5 -5 12 -1 6 4 17 -1 25 -11 7 -11 13 -16 13 -12 0 4 10 2 23 -5 12 -7 26
-11 30 -10 4 1 10 -5 14 -14 5 -13 7 -13 14 -2 7 10 9 10 9 1 0 -7 6 -13 13
-13 7 0 22 -8 33 -17 10 -10 24 -18 29 -18 12 -1 128 -55 135 -64 3 -3 12 -7
20 -9 8 -2 17 -8 18 -13 2 -5 8 -6 13 -3 6 3 15 1 22 -4 25 -21 130 -71 139
-66 4 3 8 1 8 -5 0 -5 10 -13 23 -17 12 -4 24 -10 27 -14 3 -5 14 -10 25 -12
11 -1 28 -12 37 -22 13 -14 18 -15 18 -5 0 9 3 10 8 3 4 -6 22 -17 40 -25 17
-8 32 -18 32 -22 0 -5 4 -6 9 -2 5 3 12 1 16 -5 3 -5 15 -10 26 -10 11 0 22
-7 25 -15 4 -8 10 -13 14 -10 5 3 11 1 15 -5 4 -6 11 -8 16 -5 5 4 9 1 9 -5 0
-6 4 -8 10 -5 6 3 10 1 10 -5 0 -6 5 -8 10 -5 5 3 10 1 10 -5 0 -6 5 -8 10 -5
6 3 10 1 10 -5 0 -7 6 -10 12 -8 7 3 21 -5 31 -16 10 -12 15 -15 12 -8 -6 11
-3 11 16 0 13 -7 27 -17 31 -23 4 -5 8 -6 8 -1 0 5 7 3 15 -4 8 -7 15 -9 15
-4 0 5 5 1 11 -9 6 -9 14 -15 20 -12 5 4 9 1 9 -6 0 -7 3 -9 6 -6 7 7 64 -22
76 -38 4 -5 8 -6 8 -2 0 4 20 -4 43 -18 24 -14 49 -25 56 -25 7 0 19 -7 28
-15 8 -8 19 -13 24 -10 5 4 9 1 9 -4 0 -6 9 -11 20 -11 11 0 23 -6 26 -14 3
-8 12 -12 19 -10 7 3 16 0 20 -5 3 -6 11 -9 16 -6 5 4 9 2 9 -4 0 -11 56 -41
77 -41 7 0 13 -5 13 -10 0 -6 3 -9 8 -8 4 1 35 -12 70 -30 34 -17 62 -29 62
-25 0 3 8 -1 18 -9 9 -8 36 -22 59 -33 23 -10 40 -22 37 -26 -3 -5 2 -6 11 -2
10 3 20 2 24 -3 9 -14 49 -34 66 -34 8 0 15 -4 15 -10 0 -5 9 -10 20 -10 11 0
20 -4 20 -10 0 -5 9 -10 20 -10 11 0 20 -5 20 -10 0 -6 3 -9 8 -8 11 4 72 -26
72 -35 0 -5 5 -5 10 -2 6 3 10 2 10 -4 0 -5 9 -8 20 -6 11 2 18 0 15 -6 -6 -8
8 -13 28 -10 4 0 7 -3 7 -9 0 -5 6 -10 14 -10 8 0 22 -7 30 -16 9 -8 16 -13
16 -10 0 4 41 -14 90 -39 50 -25 90 -42 90 -38 0 5 5 0 10 -9 6 -9 24 -19 40
-23 17 -4 28 -10 25 -15 -3 -5 3 -7 12 -6 10 2 29 -5 42 -15 13 -11 31 -19 41
-19 10 0 28 -8 41 -18 24 -18 53 -32 65 -31 4 0 10 -4 14 -10 3 -6 17 -14 30
-16 13 -2 27 -10 32 -17 4 -7 8 -9 8 -4 0 5 8 2 18 -7 10 -10 22 -14 25 -10 4
3 7 1 7 -5 0 -7 9 -12 21 -12 11 0 18 -4 15 -8 -2 -4 5 -9 17 -9 12 -1 23 -7
25 -13 2 -5 8 -8 13 -4 5 3 9 0 9 -6 0 -6 4 -9 9 -5 5 3 17 -2 25 -11 9 -9 23
-13 32 -10 8 3 13 2 10 -2 -3 -5 10 -15 29 -22 19 -8 35 -16 35 -20 0 -3 10
-7 22 -7 13 -1 24 -7 26 -13 2 -5 10 -10 18 -10 8 0 14 -5 14 -10 0 -6 3 -9 8
-8 14 4 52 -13 52 -23 0 -6 5 -7 10 -4 6 3 17 -1 26 -9 9 -9 20 -13 26 -10 6
4 16 1 22 -7 6 -8 31 -23 56 -34 25 -10 51 -25 58 -34 8 -10 12 -11 12 -2 0 9
5 8 16 -3 8 -9 20 -14 25 -11 5 4 9 1 9 -5 0 -6 5 -8 10 -5 6 3 10 1 10 -4 0
-6 6 -11 14 -11 7 0 19 -6 26 -14 6 -8 18 -12 26 -9 8 3 14 0 14 -6 0 -6 7
-11 15 -11 8 0 15 -4 15 -10 0 -5 7 -7 15 -4 8 4 15 1 15 -6 0 -6 5 -8 10 -5
6 3 10 1 10 -4 0 -6 7 -11 16 -11 9 0 28 -9 44 -20 15 -11 30 -17 34 -13 3 3
6 0 6 -7 0 -7 3 -10 7 -7 3 4 15 -1 26 -10 10 -10 21 -17 23 -16 11 4 43 -11
38 -18 -3 -5 2 -6 10 -3 9 3 16 1 16 -5 0 -6 3 -10 8 -9 13 4 52 -13 52 -23 0
-5 7 -9 16 -9 18 0 97 -41 102 -52 2 -5 14 -8 27 -8 13 0 25 -3 27 -7 2 -5 37
-24 78 -43 41 -19 78 -39 81 -43 3 -5 10 -9 15 -10 21 -2 64 -22 64 -30 0 -4
4 -6 9 -2 6 3 13 -1 18 -9 4 -8 13 -15 18 -15 18 1 85 -24 85 -31 0 -3 16 -12
35 -20 19 -8 35 -17 35 -22 0 -4 7 -5 15 -2 8 4 15 1 15 -6 0 -6 5 -8 10 -5 6
3 10 1 10 -5 0 -6 4 -8 10 -5 5 3 10 1 10 -5 0 -7 6 -10 14 -7 8 3 17 -1 20
-9 3 -9 10 -12 16 -9 5 3 10 2 10 -3 0 -5 18 -14 40 -21 22 -6 40 -16 40 -21
0 -6 9 -10 20 -10 11 0 20 -5 20 -11 0 -5 4 -7 10 -4 6 3 10 1 10 -4 0 -6 5
-11 11 -11 5 0 7 6 4 13 -4 6 0 4 8 -5 8 -10 22 -18 31 -18 10 0 14 -4 11 -10
-3 -5 0 -10 8 -10 7 0 33 -10 58 -22 24 -12 47 -21 52 -20 4 1 7 -2 7 -8 0 -5
18 -15 40 -21 22 -7 40 -16 40 -21 0 -4 9 -8 20 -8 11 0 20 -4 20 -10 0 -5 9
-10 20 -10 11 0 20 -4 20 -10 0 -5 7 -10 15 -10 17 0 56 -20 66 -33 3 -5 9 -8
13 -8 23 3 36 0 31 -9 -5 -9 15 -15 38 -11 4 0 7 -3 7 -8 0 -5 11 -12 25 -15
16 -4 23 -11 19 -18 -4 -7 -3 -8 4 -4 6 4 22 0 35 -9 13 -8 27 -12 30 -8 4 3
7 1 7 -5 0 -7 7 -12 16 -12 8 0 22 -7 31 -15 8 -8 19 -13 24 -10 5 4 9 1 9 -5
0 -6 5 -8 10 -5 6 3 10 1 10 -5 0 -6 4 -9 9 -5 5 3 17 -3 27 -12 10 -10 19
-17 21 -16 7 4 43 -10 43 -17 0 -4 8 -10 18 -13 9 -4 34 -13 54 -20 21 -8 39
-12 42 -10 2 3 3 -2 2 -11 -1 -9 -8 -22 -16 -29 -10 -10 -11 -9 -5 2 5 9 4 12
-3 7 -7 -4 -12 -14 -12 -22 0 -8 -4 -14 -8 -14 -5 0 -26 -16 -48 -35 -21 -19
-45 -35 -52 -35 -7 0 -11 -4 -7 -9 3 -5 -4 -12 -15 -16 -11 -3 -20 -13 -20
-21 0 -8 -5 -12 -10 -9 -6 4 -24 -6 -40 -22 -16 -15 -40 -36 -52 -46 -61 -46
-93 -74 -107 -90 -9 -9 -19 -17 -24 -17 -4 0 -19 -12 -32 -26 -14 -15 -25 -23
-25 -19 0 5 -13 -6 -28 -23 -16 -18 -32 -29 -35 -25 -4 3 -7 1 -7 -6 0 -7 -4
-9 -10 -6 -5 3 -10 -1 -10 -9 0 -9 -5 -16 -11 -16 -7 0 -22 -11 -35 -26 -13
-14 -24 -21 -24 -17 0 4 -11 -3 -24 -17 -13 -14 -35 -34 -50 -44 -15 -11 -37
-29 -50 -40 -39 -35 -71 -60 -73 -58 -2 1 -21 -16 -44 -38 -23 -22 -48 -40
-56 -40 -7 0 -12 -5 -11 -12 2 -7 -2 -12 -8 -13 -6 0 -18 -7 -27 -15 -36 -33
-45 -39 -53 -32 -4 4 -4 2 0 -5 4 -7 -3 -17 -16 -24 -13 -6 -31 -20 -41 -31
-10 -10 -23 -15 -29 -12 -6 4 -8 3 -5 -3 3 -5 -3 -17 -14 -26 -10 -9 -19 -15
-19 -12 0 2 -10 -6 -23 -18 -30 -28 -60 -52 -69 -55 -5 -1 -17 -10 -27 -19
-71 -66 -91 -83 -91 -77 0 4 -11 -5 -25 -20 -13 -14 -27 -26 -30 -26 -3 0 -13
-8 -23 -18 -35 -32 -62 -52 -62 -44 -1 4 -7 -4 -15 -18 -8 -14 -14 -21 -15
-16 0 5 -9 -1 -20 -14 -11 -13 -20 -19 -20 -14 0 4 -16 -9 -35 -29 -20 -21
-40 -35 -45 -32 -6 3 -10 -2 -10 -11 0 -10 -3 -15 -6 -11 -3 3 -13 -2 -23 -11
-9 -10 -36 -33 -60 -52 -24 -19 -49 -41 -56 -47 -8 -7 -17 -13 -22 -13 -4 0
-14 -9 -21 -21 -7 -12 -16 -18 -19 -15 -3 3 -15 -6 -25 -20 -11 -14 -22 -23
-25 -20 -7 7 -32 -18 -26 -26 2 -5 -5 -8 -17 -8 -12 0 -19 -4 -16 -8 3 -5 -8
-16 -25 -26 -16 -9 -29 -22 -29 -27 0 -6 -4 -7 -10 -4 -5 3 -10 -1 -10 -9 0
-9 -4 -15 -9 -14 -5 2 -25 -12 -45 -30 -20 -18 -36 -30 -36 -28 0 5 -34 -22
-81 -65 -15 -14 -43 -36 -61 -50 -18 -13 -43 -34 -55 -46 -13 -12 -23 -20 -23
-18 0 2 -15 -10 -32 -26 -18 -17 -43 -35 -56 -40 -13 -5 -20 -13 -17 -19 3 -5
1 -10 -5 -10 -12 0 -24 -9 -70 -52 -16 -14 -31 -24 -33 -21 -3 2 -14 -7 -25
-21 -10 -14 -22 -22 -26 -19 -3 3 -6 -1 -6 -11 0 -9 -4 -15 -9 -11 -5 3 -17
-5 -25 -17 -9 -12 -16 -20 -16 -16 0 7 -36 -22 -84 -67 -17 -16 -35 -30 -38
-30 -4 0 -18 -10 -32 -22 -15 -13 -31 -23 -36 -23 -6 0 -10 -7 -10 -16 0 -8
-4 -12 -10 -9 -5 3 -10 2 -10 -3 0 -5 -11 -15 -25 -22 -13 -7 -22 -17 -19 -22
3 -4 -2 -8 -10 -8 -9 0 -16 -4 -16 -10 0 -5 -6 -10 -14 -10 -8 0 -17 -7 -20
-16 -4 -9 -9 -14 -12 -11 -3 3 -21 -9 -39 -26 -54 -51 -86 -77 -95 -77 -4 0
-10 -7 -14 -15 -3 -8 -12 -15 -21 -15 -8 0 -15 -7 -15 -16 0 -8 -4 -13 -9 -9
-6 3 -14 -3 -20 -12 -6 -10 -11 -15 -11 -11 0 4 -10 -3 -23 -15 -35 -33 -77
-67 -77 -62 0 2 -12 -7 -26 -20 -15 -14 -31 -25 -36 -25 -5 0 -7 -4 -3 -9 3
-5 -3 -12 -13 -16 -11 -3 -38 -23 -61 -45 -22 -21 -41 -36 -41 -32 0 4 -7 -2
-15 -12 -8 -11 -15 -17 -15 -14 0 6 -50 -35 -101 -85 -16 -15 -29 -24 -29 -20
0 4 -7 -1 -15 -11 -8 -11 -15 -17 -15 -13 0 4 -12 -5 -28 -20 -44 -44 -99 -83
-107 -75 -5 4 -5 1 -1 -5 4 -7 3 -13 -2 -13 -5 0 -25 -16 -45 -35 -21 -20 -37
-32 -37 -28 0 4 -11 -4 -24 -19 -13 -16 -27 -28 -31 -28 -4 0 -16 -10 -26 -22
-11 -11 -19 -17 -19 -13 0 4 -11 -4 -25 -19 -14 -15 -25 -25 -25 -22 0 3 -10
-5 -23 -17 -40 -38 -100 -82 -110 -79 -5 1 -6 -2 -2 -8 3 -5 2 -10 -2 -10 -5
0 -26 -16 -46 -35 -20 -19 -37 -32 -37 -28 0 3 -15 -10 -34 -29 -19 -20 -37
-33 -40 -30 -3 3 -6 -1 -6 -8 0 -7 -3 -11 -6 -7 -3 3 -18 -6 -34 -21 -41 -40
-80 -71 -80 -65 0 3 -8 -3 -17 -13 -10 -10 -40 -37 -68 -59 -27 -22 -58 -48
-67 -57 -10 -10 -21 -19 -25 -20 -9 -2 -16 -7 -56 -43 -15 -14 -33 -25 -38
-25 -6 0 -7 -4 -4 -10 3 -5 -1 -10 -9 -10 -9 0 -16 -5 -16 -12 0 -6 -3 -9 -6
-5 -3 3 -16 -5 -29 -19 -12 -13 -27 -24 -34 -24 -6 0 -11 -7 -11 -15 0 -8 -6
-14 -12 -12 -7 1 -12 -4 -10 -11 1 -8 -2 -11 -7 -8 -5 4 -21 -4 -34 -16 -51
-47 -77 -68 -77 -61 0 3 -10 -5 -23 -18 -13 -13 -32 -31 -43 -39 -10 -8 -38
-30 -60 -48 -23 -17 -48 -32 -55 -32 -11 0 -11 -3 1 -10 14 -9 7 -15 -15 -10
-5 1 -4 -5 3 -12 11 -11 16 -10 26 5 7 9 18 17 25 17 6 0 11 5 11 12 0 6 3 8
6 5 4 -3 16 -1 28 5 11 7 25 12 29 13 4 0 11 6 16 13 5 8 12 13 17 13 15 -1
49 11 55 21 3 4 15 10 27 13 12 2 29 11 38 19 19 19 28 21 19 4 -4 -7 1 -4 10
7 9 11 18 19 20 18 12 -6 64 20 59 29 -4 6 1 8 15 3 12 -4 21 -2 21 4 0 6 7
11 15 11 8 0 15 5 15 11 0 5 4 8 9 4 5 -3 12 -1 16 5 4 6 11 8 16 5 5 -4 12 0
15 9 3 8 12 12 20 9 8 -3 14 -1 14 5 0 5 11 13 25 16 14 4 25 11 25 16 0 5 7
7 15 4 8 -4 15 -1 15 6 0 7 6 10 14 7 8 -3 17 1 20 10 4 9 9 13 12 10 4 -3 24
5 46 19 22 14 37 20 32 12 -4 -7 2 -5 13 5 11 9 25 17 31 17 7 0 12 4 12 8 0
4 22 16 50 26 27 10 50 23 50 29 0 6 3 8 6 4 3 -3 29 6 57 20 28 15 57 26 64
26 7 0 15 7 17 14 3 8 10 11 16 8 5 -3 10 -2 10 3 0 9 37 25 53 23 4 -1 7 3 7
9 0 5 9 10 20 10 11 0 20 5 20 11 0 5 5 7 10 4 6 -3 10 -1 10 6 0 7 3 9 7 6 3
-4 12 -2 20 4 7 6 13 8 13 5 0 -4 7 0 16 8 8 9 20 14 25 11 5 -4 9 -3 9 2 0 9
48 33 67 33 7 0 13 5 13 10 0 6 7 10 15 10 8 0 15 5 15 11 0 6 6 9 12 7 7 -3
19 1 26 9 8 7 18 11 23 8 5 -4 9 -1 9 5 0 6 5 8 10 5 6 -3 13 1 16 9 3 9 10
13 15 10 5 -3 9 0 9 7 0 8 4 8 15 -1 12 -10 15 -10 15 4 0 9 3 15 8 14 4 -1
21 5 38 15 17 9 35 13 39 9 5 -4 6 0 2 9 -3 11 0 16 11 15 19 -1 195 83 200
95 2 4 10 5 18 2 8 -3 14 1 14 8 0 7 3 9 7 6 3 -4 18 3 31 15 14 13 21 16 17
8 -6 -11 -3 -10 12 2 11 10 27 18 36 18 9 0 17 5 17 10 0 6 3 9 8 8 4 -1 18 4
32 12 14 8 31 15 38 16 7 1 20 8 29 15 14 12 33 19 60 21 7 1 10 5 8 9 -4 6
19 21 28 18 1 -1 23 11 50 25 26 15 47 23 47 19 0 -4 4 -3 8 2 9 12 95 55 111
55 6 0 11 4 11 10 0 5 16 12 35 16 19 3 35 12 35 18 0 6 10 12 22 13 11 1 24
7 28 13 4 7 10 11 14 11 15 -3 76 29 76 39 0 6 4 9 9 6 12 -8 81 22 81 35 0 5
4 8 9 4 5 -3 12 -1 16 5 4 6 11 8 16 5 5 -4 9 -2 9 3 0 9 31 23 55 26 6 1 14
7 18 14 5 7 12 10 18 7 5 -4 9 -1 9 4 0 6 9 11 20 11 11 0 20 4 20 9 0 8 37
24 53 22 4 -1 7 4 7 10 0 5 4 8 9 5 5 -3 14 1 21 10 7 8 19 13 26 10 7 -3 15
2 18 10 3 8 9 13 13 12 11 -3 166 72 174 84 3 5 8 9 10 7 7 -4 54 14 60 23 3
5 15 10 27 11 11 0 19 4 16 8 -5 9 25 21 37 13 5 -3 9 0 9 5 0 6 7 11 15 11 8
0 15 5 15 10 0 6 3 9 8 8 4 -1 17 3 28 10 12 6 24 8 28 5 3 -3 6 -2 6 4 0 12
100 58 119 55 7 -2 10 1 7 7 -4 6 5 13 19 17 14 3 25 10 25 15 0 5 3 8 8 7 4
-1 21 5 37 12 17 7 33 13 38 12 4 -1 7 3 7 9 0 5 4 8 9 5 5 -3 14 1 21 9 7 8
16 13 20 10 4 -2 17 5 28 16 12 11 22 17 22 13 0 -3 8 0 17 7 14 12 16 12 8 0
-5 -8 7 -3 27 12 19 15 38 24 41 20 4 -3 7 -1 7 5 0 7 3 11 8 10 4 -1 17 3 30
10 12 7 22 9 22 5 0 -4 4 -3 8 2 4 6 16 17 26 25 18 13 19 13 11 0 -7 -12 -5
-12 11 1 21 18 55 33 67 31 4 -1 7 2 7 7 0 8 37 24 53 22 4 -1 7 3 7 7 0 5 18
15 40 22 22 7 40 16 40 19 0 11 62 31 73 24 6 -3 7 -1 3 5 -4 7 3 14 19 18 14
3 25 10 25 16 0 5 4 7 9 4 4 -3 23 6 41 19 18 13 37 22 41 20 4 -3 10 -1 14 5
4 6 11 8 16 5 5 -4 9 -1 9 5 0 6 5 8 10 5 6 -3 10 -1 10 4 0 6 7 11 15 11 8 0
15 5 15 12 0 6 3 8 7 5 3 -4 12 -2 20 4 7 6 13 8 13 5 0 -4 13 2 29 13 16 12
36 21 44 21 9 0 17 5 19 10 2 6 13 12 25 13 12 0 20 4 18 7 -2 3 8 10 21 17
13 6 22 7 19 2 -3 -4 13 4 36 19 23 15 44 28 48 28 27 6 51 18 51 25 0 5 3 8
8 7 12 -3 92 36 92 45 0 4 5 5 11 1 6 -3 14 -2 18 3 10 15 72 43 82 37 5 -3 9
2 9 10 0 9 7 13 20 11 11 -2 25 4 32 13 7 9 22 19 33 20 11 2 23 9 26 14 4 6
12 7 18 4 6 -4 11 -1 11 8 0 9 7 13 20 11 12 -2 20 2 20 9 0 8 6 13 13 12 16
-1 230 103 239 118 4 6 8 7 8 2 0 -5 6 -3 13 3 8 6 17 8 20 4 4 -3 7 -1 7 6 0
7 5 9 10 6 6 -3 10 -1 10 5 0 6 4 9 9 5 5 -3 16 1 24 9 8 8 17 12 21 9 3 -4 6
-1 6 6 0 7 5 9 10 6 6 -3 10 -1 10 5 0 6 5 8 10 5 6 -3 10 -1 10 4 0 6 3 10 8
9 4 -1 17 3 30 10 12 7 22 9 22 5 0 -4 5 -1 10 7 5 8 13 15 17 16 4 0 22 7 38
14 17 7 33 13 38 12 4 -1 7 2 7 8 0 5 7 10 15 10 8 0 15 5 15 10 0 6 3 9 8 9
23 -4 42 3 42 15 0 9 7 12 20 9 12 -3 20 0 20 6 0 7 5 9 10 6 6 -3 10 -1 10 5
0 7 7 9 16 6 8 -3 13 -2 10 2 -3 5 10 15 29 24 19 8 32 11 28 5 -4 -6 9 0 28
14 19 13 41 25 49 27 8 2 18 8 21 14 3 5 8 9 10 7 9 -5 49 13 49 22 0 5 6 9
13 9 7 0 29 9 50 20 20 11 37 17 37 13 0 -3 8 1 18 9 19 17 53 32 65 30 4 -1
7 3 7 9 0 5 5 7 10 4 6 -3 10 -2 10 3 0 5 18 15 40 22 22 7 40 17 40 22 0 5 4
7 9 4 5 -4 11 -1 13 4 2 6 10 12 18 14 8 1 25 8 38 14 12 7 22 9 22 5 0 -4 4
-3 8 3 11 17 71 46 83 39 5 -4 8 -1 7 7 -2 7 5 12 15 12 9 -1 17 2 17 8 0 5 4
7 9 4 5 -3 14 1 21 9 7 8 16 12 21 10 4 -3 12 3 18 12 6 10 11 15 11 11 0 -4
12 -1 27 7 23 12 29 12 51 -6 14 -10 31 -19 40 -19 8 0 21 -8 29 -17 8 -10 12
-12 8 -5 -3 6 -1 12 4 12 6 0 11 -4 11 -10 0 -5 7 -10 15 -10 8 0 15 -5 15
-12 0 -6 3 -8 7 -5 3 4 12 2 20 -4 7 -6 13 -8 13 -5 0 4 13 -2 29 -13 16 -12
36 -21 45 -21 8 0 19 -7 24 -16 5 -9 12 -15 15 -15 18 3 56 -12 51 -20 -3 -5
-2 -8 3 -7 13 3 83 -25 83 -34 0 -4 9 -8 20 -8 11 0 20 -5 20 -10 0 -6 3 -9 8
-8 4 1 17 -3 30 -10 12 -7 22 -9 22 -5 0 4 5 0 11 -9 5 -10 16 -15 24 -12 8 4
15 1 15 -6 0 -6 5 -8 10 -5 6 3 10 2 10 -4 0 -5 17 -15 38 -21 20 -7 44 -19
54 -27 9 -8 22 -15 30 -16 7 -2 24 -10 37 -19 13 -10 28 -15 33 -12 4 3 8 0 8
-5 0 -6 6 -11 14 -11 22 0 66 -26 58 -35 -4 -5 -1 -5 6 -1 8 5 22 0 34 -11 15
-12 19 -13 14 -3 -6 12 -5 12 6 -1 7 -9 19 -14 27 -11 8 3 11 0 7 -7 -5 -7 1
-11 13 -11 12 0 21 -4 21 -10 0 -5 8 -10 18 -10 10 0 27 -7 38 -15 12 -8 24
-11 28 -8 3 3 6 1 6 -6 0 -8 6 -11 16 -7 8 3 13 2 10 -3 -5 -8 29 -25 47 -22
4 1 7 -3 7 -9 0 -5 9 -10 21 -10 11 0 17 -4 14 -10 -4 -6 5 -10 19 -10 14 0
26 -3 26 -7 0 -5 11 -13 25 -20 19 -8 24 -8 19 0 -3 7 4 1 16 -13 12 -14 18
-18 14 -11 -4 9 6 5 24 -8 18 -12 36 -19 42 -16 5 3 10 1 10 -5 0 -6 5 -8 10
-5 6 3 10 3 10 -2 0 -4 12 -17 27 -27 14 -11 23 -14 19 -8 -4 7 -3 12 3 12 5
0 11 -4 13 -8 4 -9 110 -62 125 -62 6 0 14 -8 17 -17 6 -15 8 -15 16 -3 8 12
10 12 16 -3 3 -9 15 -17 25 -17 10 0 19 -4 19 -10 0 -5 9 -10 20 -10 11 0 20
-4 20 -8 0 -5 18 -15 40 -22 22 -7 40 -17 40 -22 0 -4 3 -7 8 -6 12 2 80 -31
87 -43 4 -5 13 -8 21 -5 8 3 17 -1 20 -9 4 -8 10 -12 15 -9 5 3 9 1 9 -5 0 -6
7 -7 17 -4 11 4 14 3 9 -5 -4 -8 0 -12 11 -12 10 0 37 -11 60 -24 23 -14 53
-28 65 -32 13 -4 29 -14 36 -23 8 -9 11 -10 7 -3 -3 6 -1 12 4 12 6 0 11 -4
11 -9 0 -5 16 -15 35 -22 19 -7 35 -17 35 -21 0 -4 3 -7 8 -6 4 1 21 -5 38
-15 17 -9 34 -13 38 -10 3 4 6 1 6 -5 0 -7 7 -12 15 -12 8 0 15 -5 15 -11 0
-5 4 -8 9 -4 5 3 12 1 16 -5 4 -6 11 -8 16 -5 5 4 9 1 9 -4 0 -6 9 -11 20 -11
11 0 20 -4 20 -10 0 -5 7 -10 15 -10 8 0 15 -4 15 -10 0 -5 7 -7 15 -4 8 4 15
1 15 -6 0 -6 4 -9 9 -6 5 3 11 -1 15 -9 3 -8 12 -12 21 -9 8 3 15 1 15 -6 0
-6 4 -9 9 -5 5 3 16 -1 24 -9 8 -8 17 -12 21 -9 3 4 6 1 6 -6 0 -7 5 -9 10 -6
6 3 10 1 10 -5 0 -7 7 -9 16 -6 8 3 13 2 10 -3 -3 -5 1 -12 10 -15 10 -4 13
-2 9 7 -4 6 -1 5 7 -4 14 -17 15 -17 48 -26 11 -3 20 -10 20 -16 0 -6 3 -7 6
-4 7 7 104 -41 115 -56 3 -5 9 -8 13 -8 23 3 36 0 31 -9 -4 -6 5 -10 19 -10
14 0 26 -4 26 -10 0 -5 9 -10 20 -10 11 0 23 -7 26 -15 4 -8 10 -13 14 -10 4
3 20 -5 36 -17 15 -13 25 -17 21 -11 -7 12 72 -25 83 -38 5 -7 40 -19 53 -19
4 1 15 -6 23 -15 9 -8 20 -13 25 -10 5 4 9 1 9 -6 0 -7 3 -10 6 -6 4 3 13 -1
21 -9 8 -8 19 -12 24 -9 5 4 9 3 9 -2 0 -9 48 -33 67 -33 7 0 13 -3 13 -8 0
-4 9 -13 21 -20 12 -8 18 -9 15 -3 -4 7 -1 8 8 5 9 -3 16 -10 16 -16 0 -5 5
-6 10 -3 6 3 10 1 10 -4 0 -6 9 -11 20 -11 11 0 20 -3 20 -7 0 -5 11 -13 25
-19 18 -9 25 -9 29 0 3 7 5 6 5 -2 1 -7 6 -10 11 -7 6 4 9 1 8 -5 -2 -7 6 -14
16 -16 10 -1 22 -8 26 -14 3 -6 17 -12 29 -15 13 -2 29 -9 37 -16 8 -6 14 -8
14 -5 0 4 7 0 16 -8 8 -9 22 -16 30 -16 8 0 14 -5 14 -10 0 -6 3 -10 8 -9 4 1
18 -2 32 -7 14 -4 27 -7 30 -7 3 0 11 -8 18 -18 7 -11 24 -19 38 -19 14 0 22
-4 19 -10 -4 -6 5 -10 19 -10 14 0 26 -4 26 -10 0 -5 9 -10 20 -10 11 0 20 -5
20 -11 0 -6 7 -9 15 -5 10 3 15 -1 15 -12 0 -13 2 -14 9 -4 6 10 10 10 21 -3
7 -8 18 -15 26 -15 7 0 20 -7 28 -16 9 -8 20 -12 26 -9 5 3 10 2 10 -4 0 -5
10 -13 23 -17 12 -3 31 -14 41 -23 11 -9 16 -10 12 -3 -4 6 -5 12 -2 12 2 0
11 -6 18 -12 21 -20 56 -38 73 -38 8 0 15 -4 15 -10 0 -5 9 -10 20 -10 11 0
20 -5 20 -11 0 -5 5 -7 10 -4 6 3 10 1 10 -4 0 -6 3 -11 8 -10 19 3 51 -14 45
-25 -3 -6 -3 -8 2 -4 4 4 17 2 29 -4 11 -7 24 -11 29 -10 4 1 7 -3 7 -8 0 -5
3 -9 8 -8 4 1 17 -3 30 -10 12 -7 22 -9 22 -5 0 4 4 4 8 -2 12 -16 69 -45 76
-38 3 3 6 1 6 -5 0 -7 9 -12 20 -12 11 0 20 -4 20 -9 0 -8 51 -32 73 -35 4 -1
11 -7 16 -14 5 -8 11 -13 15 -13 14 3 56 -12 56 -19 0 -4 18 -12 40 -19 22 -7
38 -16 35 -22 -4 -5 -3 -9 2 -8 24 4 43 -2 37 -13 -4 -6 -3 -8 3 -5 5 3 22 -1
37 -9 16 -7 35 -14 43 -14 8 0 11 -4 8 -10 -3 -5 0 -10 7 -10 19 0 68 -23 68
-32 0 -4 6 -5 13 -2 8 3 20 -2 27 -10 7 -9 16 -13 21 -10 5 3 9 0 9 -7 0 -7 3
-9 7 -6 3 4 16 -2 28 -13 13 -12 32 -22 44 -23 11 -1 21 -5 21 -10 0 -4 5 -5
10 -2 6 3 10 1 10 -5 0 -6 5 -8 10 -5 6 3 10 1 10 -4 0 -6 3 -10 8 -9 10 2 66
-25 74 -37 5 -6 8 -6 8 0 0 6 4 4 8 -2 4 -7 19 -14 32 -15 14 -2 30 -10 37
-18 6 -8 15 -15 20 -15 4 0 44 -18 88 -40 44 -21 85 -39 90 -40 6 0 12 -3 15
-7 3 -4 47 -26 98 -51 50 -24 88 -47 84 -51 -4 -5 0 -7 8 -5 8 2 35 -7 60 -18
25 -12 49 -21 54 -21 5 0 12 -4 15 -9 3 -4 15 -15 25 -23 18 -13 19 -13 11 0
-5 10 -1 9 13 -3 11 -11 25 -16 30 -13 6 3 13 -1 16 -10 3 -8 10 -12 16 -9 5
3 10 2 10 -3 0 -5 18 -15 40 -22 22 -7 40 -17 40 -22 0 -4 9 -8 20 -8 11 0 20
-4 20 -10 0 -5 3 -9 8 -8 12 4 72 -26 72 -36 0 -4 7 -6 15 -2 8 3 15 1 15 -5
0 -6 4 -8 9 -5 5 3 11 -1 15 -9 3 -8 12 -12 20 -9 8 3 21 -4 29 -16 11 -15 16
-18 20 -8 4 10 6 10 6 1 1 -7 10 -13 21 -13 11 0 20 -3 20 -7 0 -9 49 -33 67
-33 7 0 13 -3 13 -7 0 -9 49 -33 67 -33 7 0 13 -4 13 -9 0 -5 11 -12 25 -15
14 -4 25 -11 25 -16 0 -5 7 -7 15 -4 8 4 15 1 15 -6 0 -6 4 -9 9 -5 5 3 16 -1
24 -9 8 -8 17 -12 21 -9 3 4 6 2 6 -3 0 -5 12 -10 26 -10 24 -2 23 0 -13 24
-21 14 -40 29 -41 34 -2 4 -8 6 -13 2 -5 -3 -9 3 -9 12 0 10 -3 14 -7 11 -3
-4 -13 2 -20 13 -8 11 -19 18 -24 15 -5 -4 -9 -1 -9 4 0 6 -7 11 -15 11 -8 0
-15 7 -15 15 0 8 -6 15 -14 15 -8 0 -16 7 -20 15 -3 8 -10 15 -16 15 -6 0 -22
11 -36 25 -14 14 -29 25 -34 25 -6 0 -10 7 -10 15 0 8 -7 15 -15 15 -8 0 -15
5 -15 10 0 6 -7 10 -15 10 -7 0 -18 6 -22 14 -4 8 -11 15 -15 16 -9 1 -61 45
-99 82 -15 15 -30 24 -33 21 -3 -4 -6 0 -6 7 0 7 -3 11 -6 7 -8 -7 -34 17 -34
32 0 6 -6 10 -12 8 -7 -1 -12 4 -10 11 1 8 -2 11 -7 7 -6 -3 -28 11 -50 32
-21 21 -44 37 -50 35 -6 -2 -11 3 -11 12 0 9 -7 16 -15 16 -8 0 -19 9 -25 20
-6 11 -15 20 -19 20 -8 0 -39 24 -99 77 -13 13 -28 20 -33 17 -5 -3 -9 2 -9
10 0 9 -6 16 -14 16 -8 0 -17 7 -20 16 -3 8 -10 12 -16 9 -5 -3 -10 0 -10 8 0
13 -25 31 -33 24 -1 -1 -16 13 -33 30 -17 18 -36 33 -43 33 -6 0 -11 7 -11 16
0 8 -4 13 -9 10 -5 -3 -12 1 -15 10 -4 9 -9 14 -13 10 -3 -3 -12 3 -20 14 -8
11 -21 20 -29 20 -8 0 -12 5 -9 10 3 6 1 10 -5 10 -13 0 -31 14 -67 53 -15 15
-31 27 -37 27 -7 0 -18 9 -26 20 -8 11 -18 20 -23 20 -14 0 -36 27 -29 35 4 5
2 5 -5 1 -6 -3 -23 5 -37 19 -14 14 -29 25 -33 25 -5 0 -14 9 -21 20 -7 11
-18 20 -25 20 -6 0 -23 14 -36 30 -13 17 -29 30 -37 30 -8 0 -14 5 -14 10 0 6
-4 10 -9 10 -15 0 -66 51 -63 62 1 5 -2 7 -8 3 -5 -3 -23 7 -39 24 -16 16 -31
27 -34 24 -3 -3 -21 11 -39 31 -18 20 -36 36 -41 36 -4 0 -21 13 -36 29 -16
16 -32 27 -35 24 -3 -3 -8 2 -12 11 -3 9 -10 16 -15 16 -5 0 -28 18 -51 40
-24 22 -49 40 -56 40 -7 0 -10 4 -7 10 3 5 0 10 -8 10 -8 0 -17 7 -21 15 -3 8
-11 15 -18 15 -7 0 -19 9 -26 20 -7 12 -17 18 -22 15 -6 -3 -10 1 -10 10 0 9
-4 13 -10 10 -5 -3 -10 -2 -10 3 0 5 -11 15 -25 22 -13 7 -22 17 -19 22 3 4
-2 8 -10 8 -8 0 -20 8 -25 18 -6 9 -11 13 -11 8 0 -5 -13 5 -29 22 -16 16 -32
28 -35 24 -3 -3 -6 0 -6 6 0 6 -9 14 -20 17 -11 4 -18 11 -15 16 4 5 1 9 -5 9
-11 0 -24 10 -64 47 -13 12 -27 19 -30 16 -3 -4 -6 -1 -6 6 0 7 -4 9 -10 6 -6
-3 -7 1 -4 9 6 14 -5 21 -28 17 -5 0 -8 6 -8 15 0 8 -4 13 -9 10 -5 -4 -20 7
-33 22 -13 16 -29 27 -36 24 -7 -2 -12 3 -12 12 0 9 -7 16 -15 16 -8 0 -15 4
-15 8 0 5 -11 15 -25 22 -13 7 -22 17 -19 22 3 4 -2 8 -10 8 -9 0 -16 5 -16
10 0 6 -5 10 -11 10 -6 0 -24 14 -40 31 -16 17 -29 27 -29 23 0 -5 -11 4 -25
20 -14 16 -25 26 -25 21 0 -4 -12 4 -26 19 -15 14 -31 26 -36 26 -5 0 -6 5 -2
12 4 6 3 8 -3 5 -5 -3 -29 12 -53 33 -24 21 -48 36 -53 33 -6 -3 -8 -2 -5 3 6
11 -37 55 -46 47 -3 -3 -8 2 -12 11 -3 9 -13 16 -20 16 -8 0 -17 7 -20 15 -4
8 -10 12 -16 9 -5 -3 -12 3 -15 15 -3 11 -9 18 -14 15 -5 -3 -9 0 -9 6 0 6 -7
13 -15 17 -15 5 -65 45 -107 85 -10 10 -22 18 -28 18 -5 0 -10 5 -10 10 0 6
-7 10 -16 10 -8 0 -13 4 -9 9 3 5 -3 12 -13 15 -10 4 -41 27 -68 52 -27 25
-50 45 -52 45 -8 -4 -50 37 -44 43 3 4 -2 4 -13 0 -11 -4 -17 -4 -13 0 4 5
-14 24 -40 43 -67 52 -72 56 -98 82 -13 13 -24 21 -24 17 0 -4 -6 -1 -14 6 -8
7 -12 16 -9 21 2 4 0 6 -5 5 -5 -2 -28 13 -52 32 -24 19 -48 33 -54 32 -6 -2
-8 -1 -4 3 7 8 -15 35 -28 35 -4 0 -14 7 -23 15 -9 8 -28 26 -42 39 -15 14
-30 22 -33 19 -3 -4 -6 -1 -6 6 0 6 -16 21 -35 32 -19 12 -32 26 -28 32 3 6 1
7 -5 3 -7 -4 -12 -3 -12 1 0 5 -14 17 -30 27 -17 9 -28 21 -25 27 3 5 -1 6 -9
3 -8 -3 -19 3 -26 15 -6 12 -16 21 -22 21 -6 0 -21 11 -33 24 -13 14 -26 22
-29 19 -3 -4 -6 -1 -6 6 0 7 -4 9 -10 6 -5 -3 -10 1 -10 9 0 9 -18 27 -40 41
-22 14 -40 30 -40 37 0 6 -3 9 -6 5 -5 -5 -35 16 -76 56 -10 9 -21 17 -26 17
-4 0 -13 9 -20 20 -7 12 -17 18 -22 15 -6 -3 -10 1 -10 9 0 9 -5 16 -11 16 -6
0 -17 6 -24 13 -8 6 -26 21 -41 32 -14 11 -36 30 -47 43 -12 12 -27 20 -35 17
-7 -2 -11 -1 -8 4 7 11 -18 33 -27 24 -4 -3 -7 1 -7 10 0 10 -5 17 -12 17 -7
0 -22 11 -33 24 -20 23 -25 26 -46 26 -5 0 -7 5 -4 11 4 6 -2 13 -14 16 -12 3
-21 9 -21 14 0 5 -7 9 -16 9 -8 0 -12 4 -9 10 3 6 -1 10 -9 10 -9 0 -16 7 -16
16 0 8 -4 12 -10 9 -5 -3 -10 -1 -10 4 0 6 -7 11 -15 11 -9 0 -18 7 -21 15 -3
8 -14 17 -25 20 -10 4 -19 13 -19 21 0 8 -4 13 -9 9 -5 -3 -17 5 -25 17 -9 12
-16 19 -16 14 0 -5 -8 1 -19 12 -10 12 -21 19 -25 15 -3 -3 -6 2 -6 12 0 10
-3 15 -6 12 -4 -4 -22 7 -41 23 -18 17 -39 30 -45 30 -6 0 -8 3 -5 7 4 3 -9
17 -28 30 -22 15 -32 29 -29 38 4 8 10 13 14 10 5 -3 11 -1 15 5 4 6 11 8 16
5 5 -4 9 -1 9 5 0 6 4 9 9 5 6 -3 14 3 20 12 6 10 11 14 11 10 0 -5 16 1 36
12 19 12 40 19 45 16 5 -4 9 2 9 12 0 15 2 16 10 3 8 -12 10 -12 15 2 4 9 20
20 36 23 16 4 29 11 29 17 0 6 3 8 7 5 3 -4 15 1 26 10 15 13 19 14 13 3 -6
-12 -5 -12 6 1 16 19 73 40 84 31 4 -4 4 -1 0 6 -6 11 5 17 27 13 4 0 7 3 7 9
0 5 7 10 15 10 8 0 15 5 15 11 0 5 4 8 9 4 5 -3 12 -1 16 5 3 5 15 10 26 10
11 0 17 4 14 10 -3 5 0 10 7 11 32 2 53 9 56 19 2 5 8 8 13 4 5 -3 12 1 15 10
3 8 12 12 20 9 8 -3 14 0 14 6 0 6 9 11 20 11 11 0 20 5 20 10 0 6 9 10 20 10
11 0 20 5 20 10 0 6 3 9 8 9 20 -3 32 2 27 12 -4 6 -1 10 6 9 21 -3 59 11 59
22 0 5 4 7 9 3 5 -3 12 -1 16 5 4 6 11 8 16 5 5 -4 12 1 15 9 3 9 10 14 14 11
5 -3 11 -1 15 5 4 6 11 8 16 5 5 -4 9 -1 9 5 0 7 7 10 15 6 8 -3 14 0 12 7 -1
7 4 11 11 9 7 -1 26 6 41 17 15 11 39 23 54 26 15 4 27 11 27 17 0 5 4 7 9 4
5 -4 11 -2 13 4 2 6 14 12 27 15 13 2 31 11 41 20 9 8 24 15 34 15 9 0 14 4
11 10 -3 6 1 7 9 4 9 -3 16 -1 16 5 0 6 3 11 8 10 15 -2 52 14 52 23 0 6 7 8
15 4 8 -3 15 -2 15 3 0 7 36 22 43 18 1 -1 17 9 35 22 18 13 44 24 57 25 13 0
21 4 19 8 -2 4 5 9 16 13 11 3 20 11 20 17 0 6 3 8 7 5 3 -4 15 1 26 10 12 11
17 12 12 4 -9 -16 8 -8 37 17 10 8 18 12 18 7 0 -4 7 -2 15 5 8 6 20 8 26 4 8
-4 9 -3 5 4 -6 11 6 16 19 10 2 -2 11 6 19 17 9 11 16 17 16 13 0 -4 20 4 44
17 25 14 50 25 57 25 7 0 20 7 30 16 9 8 26 16 37 17 11 0 18 5 15 11 -4 5 1
7 11 3 9 -4 15 -3 12 2 -6 9 31 25 49 21 5 -1 15 6 21 15 7 9 21 17 32 18 11
0 18 5 16 9 -3 4 2 8 10 8 9 0 16 4 16 10 0 5 7 7 15 4 8 -4 15 -1 15 7 0 7 3
9 7 6 3 -4 12 -2 20 4 7 6 13 8 13 3 0 -5 4 -4 8 2 9 13 112 66 112 58 0 -4 8
0 18 9 10 10 22 14 25 10 4 -3 7 2 7 13 0 16 2 17 10 4 6 -10 10 -11 10 -2 0
6 7 12 16 12 9 0 27 9 41 20 14 11 29 17 34 14 5 -3 9 0 9 6 0 7 7 10 15 6 8
-3 15 -1 15 4 0 6 6 10 14 10 8 0 16 5 18 10 2 6 13 12 26 13 12 0 22 5 22 9
0 4 7 8 15 8 8 0 15 5 15 10 0 6 9 10 20 10 11 0 20 4 20 10 0 5 7 6 17 3 11
-4 14 -3 9 5 -4 7 -1 12 8 12 19 0 98 40 108 54 4 6 8 8 8 3 0 -10 62 22 72
37 4 6 8 8 8 3 0 -4 22 4 50 19 27 14 55 22 61 18 9 -5 10 -2 6 10 -4 11 -2
16 6 14 6 -1 27 6 45 15 17 10 32 14 32 10 0 -5 5 0 11 9 5 10 19 18 29 18 10
0 22 5 25 11 4 6 13 8 21 5 8 -3 13 0 11 7 -1 7 6 11 16 11 9 -1 17 2 17 8 0
5 4 7 9 4 5 -4 11 -3 13 1 4 10 80 47 91 45 4 -1 7 2 7 8 0 5 9 10 20 10 11 0
20 5 20 11 0 5 5 7 10 4 6 -3 10 -1 10 5 0 6 5 8 10 5 6 -3 13 0 16 9 3 9 12
12 21 9 12 -5 14 -3 8 7 -5 8 -4 11 3 7 10 -7 71 20 83 36 3 5 9 8 13 8 3 -1
20 6 36 14 17 9 30 12 30 8 0 -5 4 -3 8 3 7 11 100 56 105 52 2 -2 11 5 21 15
10 9 22 15 27 12 5 -4 9 -1 9 6 0 7 3 9 6 6 4 -4 19 2 34 13 15 11 30 17 34
13 3 -3 6 0 6 7 0 7 3 10 6 7 4 -4 20 3 36 14 16 12 32 19 35 16 3 -4 12 1 20
9 8 8 19 12 24 9 5 -4 9 -2 9 4 0 5 16 15 35 22 19 7 35 17 35 21 0 4 5 8 11
8 5 0 7 -6 3 -12 -5 -9 -3 -9 9 1 9 7 15 17 12 20 -2 4 1 8 8 8 22 1 41 8 55
21 8 7 18 10 23 7 5 -4 9 -1 9 6 0 7 3 10 6 6 4 -3 13 1 21 9 8 8 19 12 24 9
5 -4 9 -1 9 5 0 6 4 9 9 6 5 -4 11 -1 13 5 2 6 15 12 30 12 14 1 24 5 22 9 -6
10 34 30 45 23 5 -3 11 -1 13 4 1 5 10 11 18 13 8 2 23 11 34 20 10 10 23 15
28 12 4 -3 8 0 8 6 0 6 4 9 9 5 5 -3 17 2 25 11 9 8 16 12 16 8 0 -5 5 -3 12
4 7 7 20 12 29 12 9 0 22 7 29 15 7 8 16 12 21 9 5 -3 9 -1 9 3 0 5 20 17 45
27 25 11 45 23 45 28 0 5 5 6 11 3 5 -4 19 1 29 10 10 9 26 18 35 19 9 1 21 9
26 17 7 12 9 12 9 -1 1 -12 3 -12 14 2 7 10 16 18 20 18 3 0 36 14 73 32 38
18 71 31 76 30 4 -1 7 3 7 9 0 5 5 7 10 4 6 -3 10 -3 10 2 0 9 48 33 67 33 7
0 13 3 13 8 0 4 9 13 21 20 12 8 18 9 14 2 -4 -6 8 -2 26 9 18 11 37 17 42 14
6 -3 7 -1 3 5 -4 7 -2 13 3 13 21 3 26 4 39 12 6 5 12 5 12 0 0 -4 4 -3 8 2
11 16 84 57 76 43 -4 -7 2 -5 13 4 11 10 25 18 31 18 7 0 12 5 12 10 0 6 3 9
8 8 4 -1 17 3 30 10 12 7 28 10 34 6 6 -4 8 -3 5 3 -7 11 33 33 58 33 8 0 15
5 15 10 0 6 9 10 20 10 11 0 20 5 20 11 0 5 4 8 9 5 5 -4 11 -1 13 6 2 6 15
13 28 15 13 2 27 7 30 11 3 4 25 16 50 27 25 11 48 23 51 28 3 5 9 8 13 8 20
-3 26 0 20 11 -4 6 -3 9 2 5 5 -3 27 3 48 14 22 10 46 19 53 19 8 0 11 5 8 11
-4 6 0 9 11 7 12 -2 18 2 16 10 -1 8 2 11 8 7 5 -3 29 5 54 19 24 13 47 22 50
19 3 -4 6 -1 6 5 0 6 14 13 30 17 17 4 30 10 30 15 0 7 35 21 44 17 2 -1 13 6
23 16 11 9 23 14 26 10 4 -3 7 -1 7 5 0 7 3 11 8 10 4 -1 17 3 30 10 12 7 22
10 22 7 0 -4 7 1 16 9 8 9 20 14 25 11 5 -4 9 -1 9 4 0 6 7 11 15 11 8 0 15 4
15 10 0 5 7 7 15 4 8 -4 15 -1 15 5 0 6 5 11 12 11 6 0 20 8 31 18 15 12 18
13 12 2 -7 -12 -6 -13 7 -3 8 7 19 9 23 5 5 -4 5 -2 2 5 -5 7 6 16 28 23 19 6
35 16 35 21 0 6 5 7 10 4 6 -3 23 3 39 14 15 11 31 18 35 14 3 -3 6 -1 6 5 0
7 3 11 8 10 13 -4 52 13 48 21 -3 4 5 8 16 8 12 1 24 6 27 11 6 10 39 22 55
21 5 0 12 3 15 8 9 13 71 45 71 37 0 -4 8 0 18 8 9 8 36 23 60 33 23 10 42 23
42 29 0 6 5 4 10 -4 7 -10 10 -11 10 -2 0 7 12 17 28 23 38 14 136 63 142 70
3 3 13 5 22 4 10 -2 16 2 15 8 -1 7 4 11 11 9 6 -1 12 3 12 9 0 5 5 7 11 3 6
-3 14 -2 18 3 3 5 33 22 66 38 33 15 63 33 66 38 3 5 9 8 13 7 11 -3 96 35 96
43 0 4 7 7 16 7 9 0 29 9 46 21 16 12 32 19 35 16 3 -4 22 6 41 21 20 15 33
20 28 12 -4 -9 -1 -8 7 3 8 9 19 17 26 17 6 0 23 7 36 16 14 9 25 13 25 9 0
-3 12 3 26 14 15 12 34 21 44 21 9 0 27 9 40 20 12 11 27 17 31 14 5 -3 9 0 9
6 0 7 6 10 13 7 6 -2 20 5 30 16 12 14 17 16 17 6 1 -10 4 -9 11 4 6 9 14 15
20 12 5 -4 12 1 15 9 3 9 10 13 16 10 5 -3 18 2 29 12 10 9 19 14 19 11 0 -3
48 19 106 48 59 30 112 52 118 48 6 -4 5 1 -3 10 -7 9 -20 17 -27 17 -8 0 -14
5 -14 11 0 5 -4 8 -9 4 -5 -3 -12 -1 -16 5 -4 6 -10 8 -14 5 -5 -2 -30 6 -57
19 -27 13 -61 26 -76 30 -16 3 -28 11 -28 17 0 6 -4 8 -9 4 -5 -3 -25 1 -43 9
-18 8 -49 21 -70 30 -20 9 -38 16 -41 16 -2 0 -22 8 -43 17 -22 10 -43 18 -49
19 -5 0 -26 8 -45 16 -19 8 -96 39 -170 67 -74 29 -146 57 -160 63 -35 15
-100 40 -110 42 -3 1 -15 7 -27 14 -13 7 -23 10 -23 7 0 -3 -10 0 -22 7 -13 6
-28 13 -34 14 -5 1 -29 11 -51 21 -23 11 -62 26 -87 34 -25 7 -46 17 -46 22 0
5 -7 6 -15 3 -9 -3 -18 1 -21 9 -4 8 -10 13 -14 10 -5 -3 -26 2 -47 11 -21 9
-49 21 -63 27 -14 5 -33 14 -44 19 -10 5 -26 11 -35 13 -9 2 -34 11 -56 21
-22 10 -44 17 -49 15 -5 -1 -12 2 -15 6 -6 8 -89 41 -128 50 -13 3 -23 9 -23
13 0 4 -16 11 -35 14 -19 4 -35 11 -35 16 0 5 -7 7 -15 4 -8 -4 -15 -1 -15 6
0 6 -4 9 -8 6 -4 -2 -23 2 -42 11 -37 16 -68 29 -110 46 -14 5 -33 13 -42 18
-10 5 -24 9 -33 9 -8 0 -30 9 -50 20 -19 11 -38 20 -43 21 -17 3 -54 17 -187
69 -11 4 -35 13 -52 20 -18 7 -33 15 -33 19 0 4 -9 8 -20 9 -43 4 -50 6 -50
14 0 4 -9 8 -19 8 -11 0 -23 5 -26 10 -4 6 -11 8 -16 5 -5 -4 -9 -1 -9 5 0 7
-7 10 -15 6 -8 -3 -15 0 -15 6 0 6 -3 9 -6 5 -4 -3 -25 3 -48 15 -22 11 -41
20 -41 19 0 -4 -38 10 -85 31 -25 11 -49 21 -55 23 -10 2 -31 10 -125 48 -30
12 -58 22 -62 23 -5 1 -11 3 -15 4 -5 1 -11 2 -15 1 -5 0 -8 3 -8 9 0 5 -6 10
-14 10 -8 0 -27 5 -43 12 -15 6 -31 11 -35 10 -5 -1 -8 2 -8 8 0 6 -3 9 -7 8
-8 -1 -22 4 -90 33 -24 10 -43 16 -43 13 0 -3 -10 1 -22 8 -13 7 -26 12 -30
13 -3 0 -10 3 -14 8 -4 4 -16 7 -26 7 -10 0 -18 5 -18 11 0 5 -4 8 -8 5 -5 -3
-22 2 -38 10 -16 9 -37 17 -46 19 -17 4 -78 29 -110 46 -10 5 -27 9 -38 9 -11
0 -20 5 -20 10 0 6 -6 10 -14 10 -8 0 -27 5 -43 12 -15 6 -30 12 -33 13 -3 1
-21 8 -40 16 -19 7 -38 12 -42 11 -5 -1 -8 3 -8 9 0 5 -4 7 -10 4 -5 -3 -10
-1 -10 5 0 7 -7 10 -15 6 -8 -3 -15 -2 -15 3 0 7 -48 22 -66 20 -4 0 -10 4
-14 11 -4 6 -17 12 -28 13 -12 1 -22 4 -22 8 0 4 -22 13 -50 20 -27 7 -50 16
-50 21 0 4 -7 8 -15 8 -8 0 -23 4 -33 9 -39 21 -278 111 -295 111 -11 0 -15 4
-11 12 4 6 3 8 -3 5 -5 -3 -21 0 -36 8 -15 8 -27 12 -27 9 0 -3 -12 1 -27 10
-41 21 -197 81 -205 78 -5 -1 -8 2 -8 7 0 8 -56 25 -72 22 -5 0 -8 4 -8 10 0
5 -4 8 -9 4 -5 -3 -16 2 -25 10 -8 9 -19 16 -23 16 -22 0 -53 12 -53 21 0 5
-4 6 -10 3 -5 -3 -23 1 -40 10 -16 8 -30 13 -30 9 0 -3 -11 1 -25 10 -13 9
-28 16 -33 16 -5 0 -27 8 -48 17 -22 9 -41 17 -44 18 -3 1 -17 7 -31 13 -15 6
-35 12 -45 14 -11 2 -25 9 -32 16 -7 6 -21 12 -31 12 -10 0 -21 3 -25 8 -4 4
-11 7 -14 8 -11 1 -45 15 -64 25 -10 5 -25 9 -33 9 -8 0 -15 5 -15 12 0 6 -3
8 -7 5 -3 -4 -12 -2 -20 4 -7 6 -13 9 -13 5 0 -4 -17 2 -39 13 -21 11 -41 17
-45 14 -3 -4 -6 0 -6 7 0 7 -3 11 -6 7 -4 -3 -19 0 -34 8 -15 8 -30 11 -34 8
-3 -4 -6 -1 -6 5 0 7 -3 12 -7 11 -5 -1 -18 2 -30 6 -12 4 -25 6 -29 5 -4 -1
-10 2 -13 7 -5 7 -65 34 -111 49 -36 12 -50 16 -55 15 -3 -1 -13 5 -21 14 -9
8 -20 13 -25 10 -5 -4 -9 -1 -9 6 0 7 -3 9 -7 6 -3 -4 -12 -2 -19 3 -6 6 -16
10 -20 9 -5 -1 -22 4 -39 11 -16 7 -32 14 -35 15 -3 1 -14 5 -25 10 -11 4 -94
37 -185 72 -181 71 -207 81 -232 94 -10 5 -25 9 -33 9 -10 0 -13 5 -9 12 4 6
3 8 -4 4 -6 -3 -23 -1 -39 6 -15 6 -30 12 -33 13 -3 0 -15 6 -26 13 -12 6 -24
8 -28 5 -3 -3 -6 -1 -6 6 0 7 -4 10 -9 7 -4 -3 -25 4 -47 14 -21 11 -41 20
-45 20 -4 0 -20 5 -36 12 -15 6 -30 12 -33 13 -3 1 -18 8 -35 15 -16 7 -36 12
-42 11 -7 -1 -13 3 -13 9 0 5 -3 9 -7 8 -5 -1 -21 4 -38 11 -16 7 -37 14 -45
16 -8 2 -17 4 -20 5 -3 1 -8 2 -12 1 -5 0 -8 4 -8 9 0 6 -7 10 -15 10 -8 0
-23 4 -33 9 -37 19 -106 46 -107 41 -1 -3 -13 3 -28 13 -15 9 -27 15 -27 12 0
-3 -10 0 -22 7 -13 6 -27 13 -33 14 -5 1 -27 9 -47 18 -21 9 -38 13 -38 9 0
-5 -4 -2 -9 5 -4 7 -18 14 -29 15 -12 1 -22 4 -22 8 0 4 -10 10 -22 14 -13 4
-25 8 -28 9 -3 1 -23 8 -45 15 -22 8 -44 17 -50 21 -5 5 -19 10 -30 12 -11 1
-22 5 -25 8 -6 6 -69 30 -94 35 -11 3 -23 10 -28 17 -4 7 -8 10 -8 6 0 -6 -37
8 -150 55 -14 5 -34 12 -45 14 -11 2 -22 8 -23 13 -2 6 -7 8 -11 5 -5 -2 -27
5 -51 16 -23 11 -51 22 -62 24 -11 3 -25 8 -32 13 -6 6 -26 13 -43 17 -18 3
-33 11 -33 17 0 6 -3 9 -6 5 -4 -3 -19 0 -35 8 -15 8 -36 17 -46 18 -10 2 -39
13 -65 25 -26 12 -65 26 -88 33 -22 7 -40 17 -40 22 0 6 -3 8 -6 4 -4 -3 -19
0 -35 9 -16 8 -32 15 -36 15 -10 2 -51 17 -78 28 -46 21 -91 36 -97 33 -5 -1
-8 0 -8 2 0 4 100 106 104 106 2 0 72 68 156 150 83 83 156 150 161 150 5 0 8
3 7 8 -2 4 22 30 51 57 30 28 87 83 127 123 40 39 78 72 85 72 7 0 10 3 7 6
-4 3 11 22 32 42 21 20 67 65 103 99 35 34 62 65 59 68 -3 3 -1 5 5 5 6 0 61
49 122 109 61 60 111 108 111 107 0 -1 85 82 190 185 104 102 192 184 195 181
3 -3 5 0 5 6 0 17 -15 15 -62 -8 -22 -11 -45 -17 -49 -14 -5 3 -9 0 -9 -5 0
-6 -9 -11 -20 -11 -11 0 -20 -4 -20 -9 0 -7 -16 -13 -79 -27 -8 -1 -17 -8 -21
-14 -4 -7 -10 -11 -14 -10 -4 1 -21 -4 -39 -11 -18 -6 -35 -13 -39 -14 -5 -1
-10 -4 -13 -5 -3 -1 -8 -3 -12 -4 -5 -1 -25 -10 -47 -19 -21 -9 -43 -17 -48
-17 -6 0 -22 -6 -36 -14 -37 -20 -164 -69 -179 -69 -7 0 -13 -4 -13 -9 0 -4
-6 -8 -12 -8 -15 0 -170 -61 -178 -69 -3 -3 -9 -6 -15 -7 -24 -1 -65 -17 -65
-25 0 -5 -7 -6 -15 -3 -8 4 -15 1 -15 -6 0 -6 -3 -9 -8 -6 -4 2 -23 -2 -42
-10 -19 -9 -35 -14 -36 -12 0 2 -7 -2 -15 -8 -16 -13 -90 -39 -101 -36 -5 1
-8 -3 -8 -9 0 -5 -4 -7 -10 -4 -5 3 -10 1 -10 -4 0 -6 -3 -10 -7 -9 -5 1 -24
-4 -43 -11 -19 -8 -40 -15 -45 -16 -6 -2 -32 -12 -57 -24 -26 -11 -54 -21 -62
-21 -9 0 -16 -5 -16 -12 0 -6 -3 -9 -6 -5 -3 3 -31 -5 -61 -19 -31 -13 -62
-24 -69 -24 -8 0 -14 -4 -14 -8 0 -5 -7 -9 -15 -10 -8 -1 -22 -3 -30 -4 -8 -1
-15 -5 -15 -10 0 -4 -3 -7 -7 -7 -5 1 -24 -4 -43 -12 -19 -7 -38 -12 -42 -11
-5 1 -8 -3 -8 -9 0 -5 -4 -8 -9 -4 -5 3 -12 1 -16 -5 -4 -6 -11 -8 -16 -5 -5
4 -9 1 -9 -4 0 -6 -3 -10 -7 -9 -11 3 -157 -55 -161 -64 -2 -5 -8 -5 -13 -2
-6 3 -15 1 -22 -4 -7 -5 -39 -19 -71 -31 -33 -12 -64 -25 -70 -29 -6 -3 -15
-7 -21 -7 -10 -1 -19 -5 -85 -33 -19 -8 -41 -14 -47 -13 -7 1 -13 -3 -13 -9 0
-5 -9 -10 -20 -10 -11 0 -20 -4 -20 -9 0 -6 -9 -8 -19 -6 -11 2 -25 -3 -31
-11 -7 -7 -16 -11 -21 -8 -5 3 -9 1 -9 -5 0 -5 -9 -8 -20 -6 -11 2 -20 0 -20
-6 0 -5 -9 -9 -20 -9 -11 0 -20 -5 -20 -11 0 -5 -4 -7 -10 -4 -5 3 -10 2 -10
-4 0 -5 -8 -8 -17 -7 -10 2 -21 -1 -24 -6 -3 -5 -21 -12 -39 -14 -31 -5 -59 2
-130 34 -19 9 -41 15 -47 14 -7 -2 -13 2 -13 8 0 6 -4 8 -10 5 -5 -3 -10 -2
-10 3 0 5 -6 9 -12 9 -16 0 -181 64 -188 72 -3 3 -12 7 -20 9 -8 1 -50 17 -94
34 -43 17 -85 31 -92 31 -8 0 -14 3 -14 7 0 4 -20 13 -45 20 -25 7 -45 17 -45
21 0 5 -3 8 -7 8 -5 -1 -11 0 -15 1 -5 1 -11 3 -15 4 -29 6 -159 61 -165 70
-5 7 -8 7 -8 1 0 -5 -5 -3 -10 5 -7 11 -10 11 -10 2 0 -10 -5 -10 -22 2 -12 9
-30 16 -40 16 -10 0 -18 4 -18 9 0 4 -21 14 -47 21 -27 7 -52 16 -58 20 -14
10 -127 52 -142 53 -7 0 -13 4 -13 9 0 4 -8 8 -18 8 -10 0 -23 5 -30 12 -7 7
-12 8 -12 4 0 -5 -7 -3 -15 4 -8 7 -15 9 -15 4 0 -5 -4 -3 -9 4 -4 7 -18 14
-29 15 -12 1 -22 5 -22 9 0 4 -9 8 -19 8 -11 0 -23 5 -26 10 -4 6 -10 8 -15 5
-5 -3 -11 -1 -15 5 -4 6 -10 8 -15 5 -5 -3 -11 -1 -15 5 -3 5 -15 10 -26 10
-10 0 -19 5 -19 10 0 6 -11 10 -25 10 -14 0 -25 4 -25 8 0 4 -10 8 -22 9 -11
1 -24 6 -27 10 -3 4 -15 10 -26 11 -11 2 -23 8 -26 14 -3 5 -10 8 -15 7 -5 -1
-22 3 -39 10 -35 16 -55 23 -115 46 -54 20 -108 43 -134 57 -14 7 -16 6 -10
-4 4 -7 -1 -6 -12 3 -10 9 -30 20 -44 23 -14 4 -34 11 -45 16 -41 19 -80 33
-87 32 -5 -1 -8 3 -8 9 0 5 -3 8 -8 5 -4 -2 -25 4 -47 14 -22 10 -43 16 -47
14 -5 -3 -8 0 -8 5 0 6 -9 11 -19 11 -11 0 -23 5 -26 10 -4 6 -11 8 -16 5 -5
-4 -9 -1 -9 5 0 6 -4 8 -10 5 -5 -3 -10 -2 -10 2 0 5 -8 9 -17 10 -10 1 -36 9
-58 18 -22 10 -40 16 -40 15 0 -2 -19 7 -42 19 -23 11 -48 21 -55 20 -10 0
-10 -2 0 -6z m3217 -1253 c3 -6 -1 -7 -9 -4 -18 7 -21 14 -7 14 6 0 13 -4 16
-10z m-505 -1388 c33 -34 66 -62 72 -62 6 0 9 -2 6 -6 -7 -7 45 -61 55 -56 4
2 7 -5 7 -14 0 -10 2 -15 6 -12 3 3 68 -57 146 -133 77 -77 144 -139 149 -139
4 0 11 -9 14 -20 3 -11 10 -20 15 -20 5 0 81 -72 171 -160 89 -88 166 -160
170 -160 5 0 9 -7 9 -16 0 -8 4 -13 9 -9 5 3 13 -4 16 -16 4 -11 9 -18 11 -16
3 3 73 -62 157 -144 262 -256 470 -459 472 -459 1 0 72 -70 159 -155 87 -85
162 -155 167 -155 5 0 9 -7 9 -15 0 -8 4 -15 8 -15 13 0 92 -79 92 -92 0 -6 2
-9 5 -6 3 3 42 -30 85 -74 44 -43 80 -76 80 -73 0 4 12 -8 27 -25 41 -49 84
-90 94 -90 5 0 9 -7 9 -17 0 -9 3 -14 6 -10 8 8 33 -16 27 -25 -2 -5 0 -8 6
-8 14 0 60 -47 53 -54 -3 -3 0 -6 6 -6 7 0 61 -49 122 -109 60 -60 112 -106
115 -103 3 3 5 -3 5 -13 0 -10 2 -16 5 -13 7 6 215 -197 215 -211 0 -5 -9 -13
-20 -16 -11 -4 -17 -11 -14 -17 5 -7 1 -9 -9 -5 -12 4 -17 1 -17 -10 0 -9 -2
-14 -5 -11 -3 3 -19 -6 -35 -21 -63 -58 -90 -80 -90 -76 0 2 -10 -6 -23 -18
-12 -12 -35 -31 -51 -42 -16 -11 -42 -33 -58 -50 -15 -16 -28 -26 -28 -21 0 5
-8 0 -17 -11 -10 -11 -28 -25 -41 -32 -12 -7 -20 -16 -17 -22 4 -5 3 -9 -2 -8
-18 3 -34 -1 -29 -9 2 -4 -9 -14 -25 -21 -16 -7 -27 -17 -24 -21 3 -5 -3 -11
-14 -15 -11 -3 -22 -12 -25 -20 -3 -8 -11 -15 -18 -15 -7 -1 -35 -21 -62 -45
-28 -25 -56 -45 -63 -45 -7 0 -13 -10 -13 -22 0 -17 -3 -19 -9 -10 -7 11 -9
11 -14 -2 -4 -9 -14 -16 -22 -16 -9 0 -13 -4 -10 -10 3 -5 2 -10 -2 -10 -10 0
-56 -35 -90 -67 -13 -12 -23 -19 -23 -16 0 3 -11 -7 -25 -23 -14 -16 -25 -26
-25 -21 0 4 -8 -1 -18 -10 -10 -10 -35 -31 -56 -48 -60 -46 -85 -67 -122 -102
-19 -17 -34 -29 -34 -25 0 3 -16 -9 -35 -28 -19 -19 -35 -31 -35 -27 0 4 -13
-6 -29 -22 -16 -16 -31 -27 -34 -25 -3 3 -8 -4 -12 -15 -4 -13 -11 -18 -22
-14 -10 4 -14 2 -10 -4 3 -5 -5 -16 -18 -23 -13 -7 -22 -17 -19 -22 3 -5 2 -8
-3 -7 -16 4 -43 -13 -36 -24 3 -5 2 -7 -4 -4 -5 3 -31 -15 -58 -41 -27 -25
-45 -40 -41 -32 4 8 0 6 -8 -4 -9 -11 -16 -16 -16 -10 -1 5 -7 -2 -15 -16 -8
-14 -14 -21 -15 -16 0 5 -11 -3 -24 -17 -13 -14 -27 -23 -30 -20 -3 4 -6 1 -6
-5 0 -7 -7 -12 -16 -12 -8 0 -12 -4 -9 -10 3 -5 2 -10 -4 -10 -6 0 -22 -11
-36 -25 -14 -14 -25 -23 -25 -20 0 3 -11 -4 -24 -17 -29 -28 -55 -49 -119 -95
-26 -19 -44 -40 -40 -45 3 -6 1 -8 -4 -5 -6 4 -16 0 -23 -8 -7 -8 -16 -12 -21
-9 -5 3 -9 -2 -9 -10 0 -9 -5 -16 -10 -16 -6 0 -21 -10 -34 -22 -13 -13 -33
-29 -44 -37 -12 -8 -18 -19 -15 -24 3 -6 1 -7 -5 -3 -6 4 -19 -2 -29 -14 -10
-11 -22 -20 -28 -20 -6 0 -16 -9 -23 -20 -7 -12 -17 -18 -22 -15 -6 3 -10 -2
-10 -11 0 -10 -3 -15 -6 -11 -3 3 -13 -2 -23 -11 -9 -10 -31 -28 -49 -41 -17
-13 -29 -27 -26 -32 3 -5 -1 -7 -8 -4 -7 3 -34 -14 -60 -37 -59 -54 -90 -78
-101 -78 -4 0 -5 -4 -2 -10 3 -5 1 -10 -5 -10 -6 0 -18 -7 -27 -15 -8 -8 -19
-12 -25 -9 -7 4 -8 2 -4 -4 4 -7 -10 -22 -33 -38 -23 -14 -38 -31 -34 -37 3
-5 0 -8 -8 -5 -7 2 -26 -8 -41 -24 -15 -16 -28 -26 -28 -23 0 3 -17 -11 -37
-30 -20 -19 -43 -35 -51 -35 -7 0 -11 -4 -8 -9 4 -5 -7 -15 -23 -22 -16 -7
-27 -17 -25 -21 3 -4 1 -8 -5 -8 -6 0 -19 -9 -30 -21 l-19 -21 -18 21 c-10 12
-22 21 -26 21 -5 0 -17 8 -27 18 -11 9 -33 28 -51 42 -17 14 -42 35 -56 48
-13 13 -24 20 -24 16 0 -3 -13 8 -29 25 -17 18 -31 31 -33 29 -4 -3 -46 31
-67 55 -8 9 -21 17 -28 17 -7 0 -13 8 -13 18 0 14 -2 15 -10 2 -9 -13 -10 -13
-11 0 -1 8 -1 18 0 23 0 4 -6 7 -15 7 -9 0 -25 10 -35 22 -11 11 -19 17 -19
13 0 -4 -11 4 -25 19 -13 14 -29 26 -34 26 -5 0 -17 10 -25 22 -9 12 -16 19
-16 15 0 -4 -8 1 -18 10 -11 10 -17 22 -14 27 3 5 1 6 -5 3 -5 -3 -21 5 -36
19 -14 13 -29 24 -32 24 -3 0 -19 14 -35 30 -17 17 -30 27 -30 23 0 -4 -7 2
-15 13 -8 10 -15 16 -15 12 0 -4 -12 5 -27 20 -15 15 -27 31 -25 35 1 5 -2 6
-6 3 -5 -3 -22 6 -38 19 -16 14 -32 25 -36 25 -4 0 -10 9 -13 20 -4 11 -10 18
-15 15 -5 -3 -15 2 -23 10 -9 8 -21 15 -27 15 -6 0 -8 5 -5 10 3 6 -1 10 -10
10 -9 0 -13 5 -10 10 3 6 0 10 -7 10 -8 0 -21 8 -29 18 -9 9 -26 24 -39 32
-12 8 -39 29 -58 47 -20 17 -40 29 -44 27 -5 -3 -8 4 -8 16 0 12 -4 19 -10 15
-5 -3 -18 2 -28 12 -30 29 -76 63 -84 63 -4 0 -8 8 -8 17 0 9 -3 13 -7 10 -3
-4 -12 1 -20 11 -10 11 -12 12 -8 2 4 -8 -6 0 -23 18 -16 17 -33 32 -37 32 -4
0 -21 14 -37 30 -15 17 -32 30 -36 30 -4 0 -27 18 -51 40 -24 22 -47 40 -52
40 -5 0 -9 5 -9 11 0 5 -4 7 -10 4 -9 -5 -14 7 -11 27 0 4 -8 5 -19 3 -12 -2
-18 0 -15 6 4 5 2 9 -3 9 -5 0 -23 14 -41 30 -17 17 -31 28 -31 25 0 -3 -17
11 -37 30 -20 19 -38 33 -41 31 -2 -2 -16 9 -31 25 -15 16 -31 26 -34 22 -4
-3 -7 1 -7 10 0 8 -9 19 -20 22 -11 3 -20 11 -20 16 0 5 -7 9 -16 9 -8 0 -12
5 -9 10 3 6 -1 10 -9 10 -8 0 -20 8 -25 18 -6 9 -11 13 -11 9 0 -4 -11 2 -25
15 -43 40 -53 47 -61 40 -4 -4 -4 -2 0 5 4 7 -3 17 -16 24 -13 7 -31 21 -40
32 -10 11 -18 16 -18 12 0 -4 -11 4 -25 19 -13 14 -26 26 -29 26 -3 0 -16 9
-28 19 -13 11 -34 29 -47 40 -13 11 -28 18 -33 15 -4 -3 -8 -2 -7 3 3 17 -1
33 -8 32 -21 -3 -33 2 -33 16 0 8 -5 15 -11 15 -6 0 -16 6 -24 13 -26 25 -55
47 -63 47 -4 1 -18 14 -32 30 -13 17 -28 30 -32 30 -9 0 -38 23 -74 58 -13 13
-24 20 -24 17 0 -3 -11 6 -25 21 -14 15 -25 23 -25 18 0 -5 -5 -1 -11 9 -5 9
-16 17 -24 17 -8 0 -17 5 -21 12 -5 7 -3 8 7 3 12 -8 12 -6 0 8 -8 10 -16 15
-19 12 -9 -8 -32 17 -25 28 3 6 1 7 -6 3 -7 -5 -20 1 -30 13 -10 12 -21 21
-25 21 -3 0 -14 7 -25 16 -18 16 -15 20 71 105 50 49 95 89 100 89 5 0 7 4 3
9 -3 5 3 12 12 16 10 3 33 24 51 47 17 22 32 38 32 35 0 -3 43 37 95 89 53 51
100 94 105 94 5 0 11 8 14 18 3 9 19 26 35 37 17 11 28 21 26 23 -6 6 22 32
34 32 5 0 13 9 16 21 4 11 9 18 12 16 2 -3 39 29 81 71 42 43 80 76 84 74 5
-1 8 3 8 8 0 13 110 120 123 120 6 0 8 3 5 6 -4 3 11 21 33 41 21 19 107 102
191 184 84 82 156 149 161 149 4 0 5 5 2 10 -3 6 0 10 8 10 7 0 20 11 27 25 7
14 15 23 17 21 2 -2 44 36 93 84 49 49 91 85 94 82 3 -3 6 -1 6 5 0 6 18 29
40 51 22 22 40 37 40 34 0 -3 11 9 25 28 14 19 25 31 25 28 0 -3 64 57 142
133 78 77 146 139 151 139 4 0 6 4 2 9 -3 5 4 12 14 16 11 3 23 15 26 26 4 11
9 19 11 16 2 -2 61 52 131 120 69 67 130 123 135 123 5 0 7 4 3 9 -3 5 4 12
15 16 11 4 18 11 15 16 -4 5 -2 9 3 9 4 0 72 63 151 140 78 77 147 140 152
140 6 0 7 5 4 10 -3 6 0 10 7 10 7 0 24 16 38 35 14 19 31 35 38 35 6 0 12 7
12 15 0 8 3 14 8 13 10 -4 52 39 45 46 -4 3 -1 6 6 6 15 0 41 25 41 38 0 22
31 3 90 -56z"/>
</g>
</svg>
